<svg xmlns="http://www.w3.org/2000/svg" width="128" height="128" viewBox="0 0 256 256" xmlns:c2pa="http://c2pa.org/manifest"><metadata><c2pa:manifest>AAAWgmp1bWIAAAAeanVtZGMycGEAEQAQgAAAqgA4m3EDYzJwYQAAABZcanVtYgAAAEdqdW1kYzJtYQARABCAAACqADibcQN1cm46YzJwYTo0ZDZiYjUzNy03ODAzLTQ3ZGEtYTljOC04YWUwYjAzY2FlYTAAAAADl2p1bWIAAAApanVtZGMyYXMAEQAQgAAAqgA4m3EDYzJwYS5hc3NlcnRpb25zAAAAALxqdW1iAAAARGp1bWRjYm9yABEAEIAAAKoAOJtxE2MycGEuaW5ncmVkaWVudC52MwAAAAAYYzJzaLOcpCfXmEM+izUGBhWegTMAAABwY2JvcqNpZGM6Zm9ybWF0bWltYWdlL3N2Zyt4bWxqaW5zdGFuY2VJRHgseG1wOmlpZDowNmM5OTFmZC04NzVlLTQ3MDktYjAzZi1kMzQzNDIxYjY5MmFscmVsYXRpb25zaGlwaHBhcmVudE9mAAAB4mp1bWIAAABBanVtZGNib3IAEQAQgAAAqgA4m3ETYzJwYS5hY3Rpb25zLnYyAAAAABhjMnNoSwDYWpwISc3wrLoULpJspAAAAZljYm9yomdhY3Rpb25zgqJmYWN0aW9ua2MycGEub3BlbmVkanBhcmFtZXRlcnOha2luZ3JlZGllbnRzgaJjdXJseC1zZWxmI2p1bWJmPWMycGEuYXNzZXJ0aW9ucy9jMnBhLmluZ3JlZGllbnQudjNkaGFzaFggp6ubLsUkrCxy4zCv3EjOxjD3tb+ldHCGmT7X9zhNpyGkZmFjdGlvbngdY29tLmFudGhyb3BpYy5jbGF1ZGUucHJvdmlkZWRqcGFyYW1ldGVyc6F4H2NvbS5hbnRocm9waWMub3JpZ2luLWNvbmZpZGVuY2VndW5rbm93bmtkZXNjcmlwdGlvbnhmQ2xhdWRlIHByb3ZpZGVkIHRoaXMgZmlsZSBhdCB0aGUgcmVxdWVzdCBvZiBhIHVzZXIgYW5kIG1heSBoYXZlIGNyZWF0ZWQgb3IgbW9kaWZpZWQgdGhlIGZpbGUgY29udGVudHMubXNvZnR3YXJlQWdlbnShZG5hbWVmQ2xhdWRlcmFsbEFjdGlvbnNJbmNsdWRlZPUAAADIanVtYgAAAEBqdW1kY2JvcgARABCAAACqADibcRNjMnBhLmhhc2guZGF0YQAAAAAYYzJzaMguaSMCwuvxYzu45xIAh5oAAACAY2JvcqVjYWxnZnNoYTI1NmNwYWRNAAAAAAAAAAAAAAAAAGRoYXNoWCAO4RfkLypVadxbOcGd4a0EA9gStjA4Tv2LFFY1YVwfzGRuYW1lbmp1bWJmIG1hbmlmZXN0amV4Y2x1c2lvbnOBomVzdGFydBiWZmxlbmd0aBkeBAAAAj5qdW1iAAAAJ2p1bWRjMmNsABEAEIAAAKoAOJtxA2MycGEuY2xhaW0udjIAAAACD2Nib3KlY2FsZ2ZzaGEyNTZpc2lnbmF0dXJleE1zZWxmI2p1bWJmPS9jMnBhL3VybjpjMnBhOjRkNmJiNTM3LTc4MDMtNDdkYS1hOWM4LThhZTBiMDNjYWVhMC9jMnBhLnNpZ25hdHVyZWppbnN0YW5jZUlEeCx4bXA6aWlkOmY5YzU4ZmJhLWIwZTYtNGY5NS04ZTZlLTAxYzViODM3ZDNiOXJjcmVhdGVkX2Fzc2VydGlvbnODomN1cmx4LXNlbGYjanVtYmY9YzJwYS5hc3NlcnRpb25zL2MycGEuaW5ncmVkaWVudC52M2RoYXNoWCCnq5suxSSsLHLjMK/cSM7GMPe1v6V0cIaZPtf3OE2nIaJjdXJseCpzZWxmI2p1bWJmPWMycGEuYXNzZXJ0aW9ucy9jMnBhLmFjdGlvbnMudjJkaGFzaFggNMU3o9lHap6+xb8ebTOFFK6PO2WJusbSc6t0QInhYwuiY3VybHgpc2VsZiNqdW1iZj1jMnBhLmFzc2VydGlvbnMvYzJwYS5oYXNoLmRhdGFkaGFzaFgg2GCX1gd/2jD/0+LDyucWZnN+9dUUh/1b8LKYE8HulUd0Y2xhaW1fZ2VuZXJhdG9yX2luZm+jZG5hbWVvQW50aHJvcGljIEZpbGVzZ3ZlcnNpb25lMS4wLjBrc3BlY1ZlcnNpb25lMi40LjAAABA4anVtYgAAAChqdW1kYzJjcwARABCAAACqADibcQNjMnBhLnNpZ25hdHVyZQAAABAIY2JvctKEWQISogEmGCFZAgowggIGMIIBjaADAgECAhRA5aAK7sI50L64g/oGQgU9Z1UTADAKBggqhkjOPQQDAzBJMRcwFQYDVQQKEw5BbnRocm9waWMsIFBCQzEuMCwGA1UEAxMlQW50aHJvcGljIENvbnRlbnQgQ3JlZGVudGlhbHMgUm9vdCBDQTAeFw0yNjA4MDcxODQzNTZaFw0yODA4MDYxOTQzNTZaMEQxFzAVBgNVBAoTDkFudGhyb3BpYywgUEJDMSkwJwYDVQQDEyBBbnRocm9waWMgQ2xhdWRlIENvbnRlbnQgU2lnbmluZzBZMBMGByqGSM49AgEGCCqGSM49AwEHA0IABJh6CmvLUBgFFNU0vUKlOVtE6djd17L5SuwX0LemFisBM3dkd/3cyjxFA3Qo5S46fX0/ihY0VZ7mfb9KF703t5OjWDBWMA4GA1UdDwEB/wQEAwIHgDAVBgNVHSUEDjAMBgorBgEEAYPoXgIBMAwGA1UdEwEB/wQCMAAwHwYDVR0jBBgwFoAUzlHiBIFOZFsj+OPEz5o+nMHXXMIwCgYIKoZIzj0EAwMDZwAwZAIwMXMdFJ4BetLLVY7ORuE9noqbbAZOZn/aArXyTwFAZfKrPzxF2vPoJNf1+UCdg1XGAjBwX1zd9WGqYkqmL5SFqw1QySjr1zJfpJM9+1rdDwSPLMOPOjKuiXjoU/pUUeG9RwmhY3BhZFkNngAAAAAAAAAAAAAAAAAAAAAAAAAAAAAAAAAAAAAAAAAAAAAAAAAAAAAAAAAAAAAAAAAAAAAAAAAAAAAAAAAAAAAAAAAAAAAAAAAAAAAAAAAAAAAAAAAAAAAAAAAAAAAAAAAAAAAAAAAAAAAAAAAAAAAAAAAAAAAAAAAAAAAAAAAAAAAAAAAAAAAAAAAAAAAAAAAAAAAAAAAAAAAAAAAAAAAAAAAAAAAAAAAAAAAAAAAAAAAAAAAAAAAAAAAAAAAAAAAAAAAAAAAAAAAAAAAAAAAAAAAAAAAAAAAAAAAAAAAAAAAAAAAAAAAAAAAAAAAAAAAAAAAAAAAAAAAAAAAAAAAAAAAAAAAAAAAAAAAAAAAAAAAAAAAAAAAAAAAAAAAAAAAAAAAAAAAAAAAAAAAAAAAAAAAAAAAAAAAAAAAAAAAAAAAAAAAAAAAAAAAAAAAAAAAAAAAAAAAAAAAAAAAAAAAAAAAAAAAAAAAAAAAAAAAAAAAAAAAAAAAAAAAAAAAAAAAAAAAAAAAAAAAAAAAAAAAAAAAAAAAAAAAAAAAAAAAAAAAAAAAAAAAAAAAAAAAAAAAAAAAAAAAAAAAAAAAAAAAAAAAAAAAAAAAAAAAAAAAAAAAAAAAAAAAAAAAAAAAAAAAAAAAAAAAAAAAAAAAAAAAAAAAAAAAAAAAAAAAAAAAAAAAAAAAAAAAAAAAAAAAAAAAAAAAAAAAAAAAAAAAAAAAAAAAAAAAAAAAAAAAAAAAAAAAAAAAAAAAAAAAAAAAAAAAAAAAAAAAAAAAAAAAAAAAAAAAAAAAAAAAAAAAAAAAAAAAAAAAAAAAAAAAAAAAAAAAAAAAAAAAAAAAAAAAAAAAAAAAAAAAAAAAAAAAAAAAAAAAAAAAAAAAAAAAAAAAAAAAAAAAAAAAAAAAAAAAAAAAAAAAAAAAAAAAAAAAAAAAAAAAAAAAAAAAAAAAAAAAAAAAAAAAAAAAAAAAAAAAAAAAAAAAAAAAAAAAAAAAAAAAAAAAAAAAAAAAAAAAAAAAAAAAAAAAAAAAAAAAAAAAAAAAAAAAAAAAAAAAAAAAAAAAAAAAAAAAAAAAAAAAAAAAAAAAAAAAAAAAAAAAAAAAAAAAAAAAAAAAAAAAAAAAAAAAAAAAAAAAAAAAAAAAAAAAAAAAAAAAAAAAAAAAAAAAAAAAAAAAAAAAAAAAAAAAAAAAAAAAAAAAAAAAAAAAAAAAAAAAAAAAAAAAAAAAAAAAAAAAAAAAAAAAAAAAAAAAAAAAAAAAAAAAAAAAAAAAAAAAAAAAAAAAAAAAAAAAAAAAAAAAAAAAAAAAAAAAAAAAAAAAAAAAAAAAAAAAAAAAAAAAAAAAAAAAAAAAAAAAAAAAAAAAAAAAAAAAAAAAAAAAAAAAAAAAAAAAAAAAAAAAAAAAAAAAAAAAAAAAAAAAAAAAAAAAAAAAAAAAAAAAAAAAAAAAAAAAAAAAAAAAAAAAAAAAAAAAAAAAAAAAAAAAAAAAAAAAAAAAAAAAAAAAAAAAAAAAAAAAAAAAAAAAAAAAAAAAAAAAAAAAAAAAAAAAAAAAAAAAAAAAAAAAAAAAAAAAAAAAAAAAAAAAAAAAAAAAAAAAAAAAAAAAAAAAAAAAAAAAAAAAAAAAAAAAAAAAAAAAAAAAAAAAAAAAAAAAAAAAAAAAAAAAAAAAAAAAAAAAAAAAAAAAAAAAAAAAAAAAAAAAAAAAAAAAAAAAAAAAAAAAAAAAAAAAAAAAAAAAAAAAAAAAAAAAAAAAAAAAAAAAAAAAAAAAAAAAAAAAAAAAAAAAAAAAAAAAAAAAAAAAAAAAAAAAAAAAAAAAAAAAAAAAAAAAAAAAAAAAAAAAAAAAAAAAAAAAAAAAAAAAAAAAAAAAAAAAAAAAAAAAAAAAAAAAAAAAAAAAAAAAAAAAAAAAAAAAAAAAAAAAAAAAAAAAAAAAAAAAAAAAAAAAAAAAAAAAAAAAAAAAAAAAAAAAAAAAAAAAAAAAAAAAAAAAAAAAAAAAAAAAAAAAAAAAAAAAAAAAAAAAAAAAAAAAAAAAAAAAAAAAAAAAAAAAAAAAAAAAAAAAAAAAAAAAAAAAAAAAAAAAAAAAAAAAAAAAAAAAAAAAAAAAAAAAAAAAAAAAAAAAAAAAAAAAAAAAAAAAAAAAAAAAAAAAAAAAAAAAAAAAAAAAAAAAAAAAAAAAAAAAAAAAAAAAAAAAAAAAAAAAAAAAAAAAAAAAAAAAAAAAAAAAAAAAAAAAAAAAAAAAAAAAAAAAAAAAAAAAAAAAAAAAAAAAAAAAAAAAAAAAAAAAAAAAAAAAAAAAAAAAAAAAAAAAAAAAAAAAAAAAAAAAAAAAAAAAAAAAAAAAAAAAAAAAAAAAAAAAAAAAAAAAAAAAAAAAAAAAAAAAAAAAAAAAAAAAAAAAAAAAAAAAAAAAAAAAAAAAAAAAAAAAAAAAAAAAAAAAAAAAAAAAAAAAAAAAAAAAAAAAAAAAAAAAAAAAAAAAAAAAAAAAAAAAAAAAAAAAAAAAAAAAAAAAAAAAAAAAAAAAAAAAAAAAAAAAAAAAAAAAAAAAAAAAAAAAAAAAAAAAAAAAAAAAAAAAAAAAAAAAAAAAAAAAAAAAAAAAAAAAAAAAAAAAAAAAAAAAAAAAAAAAAAAAAAAAAAAAAAAAAAAAAAAAAAAAAAAAAAAAAAAAAAAAAAAAAAAAAAAAAAAAAAAAAAAAAAAAAAAAAAAAAAAAAAAAAAAAAAAAAAAAAAAAAAAAAAAAAAAAAAAAAAAAAAAAAAAAAAAAAAAAAAAAAAAAAAAAAAAAAAAAAAAAAAAAAAAAAAAAAAAAAAAAAAAAAAAAAAAAAAAAAAAAAAAAAAAAAAAAAAAAAAAAAAAAAAAAAAAAAAAAAAAAAAAAAAAAAAAAAAAAAAAAAAAAAAAAAAAAAAAAAAAAAAAAAAAAAAAAAAAAAAAAAAAAAAAAAAAAAAAAAAAAAAAAAAAAAAAAAAAAAAAAAAAAAAAAAAAAAAAAAAAAAAAAAAAAAAAAAAAAAAAAAAAAAAAAAAAAAAAAAAAAAAAAAAAAAAAAAAAAAAAAAAAAAAAAAAAAAAAAAAAAAAAAAAAAAAAAAAAAAAAAAAAAAAAAAAAAAAAAAAAAAAAAAAAAAAAAAAAAAAAAAAAAAAAAAAAAAAAAAAAAAAAAAAAAAAAAAAAAAAAAAAAAAAAAAAAAAAAAAAAAAAAAAAAAAAAAAAAAAAAAAAAAAAAAAAAAAAAAAAAAAAAAAAAAAAAAAAAAAAAAAAAAAAAAAAAAAAAAAAAAAAAAAAAAAAAAAAAAAAAAAAAAAAAAAAAAAAAAAAAAAAAAAAAAAAAAAAAAAAAAAAAAAAAAAAAAAAAAAAAAAAAAAAAAAAAAAAAAAAAAAAAAAAAAAAAAAAAAAAAAAAAAAAAAAAAAAAAAAAAAAAAAAAAAAAAAAAAAAAAAAAAAAAAAAAAAAAAAAAAAAAAAAAAAAAAAAAAAAAAAAAAAAAAAAAAAAAAAAAAAAAAAAAAAAAAAAAAAAAAAAAAAAAAAAAAAAAAAAAAAAAAAAAAAAAAAAAAAAAAAAAAAAAAAAAAAAAAAAAAAAAAAAAAAAAAAAAAAAAAAAAAAAAAAAAAAAAAAAAAAAAAAAAAAAAAAAAAAAAAAAAAAAAAAAAAAAAAAAAAAAAAAAAAAAAAAAAAAAAAAAAAAAAAAAAAAAAAAAAAAAAAAAAAAAAAAAAAAAAAAAAAAAAAAAAAAAAAAAAAAAAAAAAAAAAAAAAAAAAAAAAAAAAAAAAAAAAAAAAAAAAAAAAAAAAAAAAAAAAAAAAAAAAAAAAAAAAAAAAAAAAAAAAAAAAAAAAAAAAAAAAAAAAAAAAAAAAAAAAAAAAAAAAAAAAAAAAAAAAAAAAAAAAAAAAAAAAAAAAAAAAAAAAAAAAAAAAAAAAAAAAAAAAAAAAAAAAAAAAAAAAAAAAAAAAAAAAAAAAAAAAAAAAAAAAAAAAAAAAAAAAAAAAAAAAAAAAAAAAAAAAAAAAAAAAAAAAAAAAAAAAAAAAAAAAAAAAAAAAAAAAAAAAAAAAAAAAAAAAAAAAAAAAAAAAAAAAAAAAAAAAAAAAAAAAAAAAAAAAAAAAAAAAAAAAAAAAAAAAAAAAAAAAAAAAAAAAAAAAAAAAAAAAAAAAAAAAAAAAAAAAAAAAAAAAAAAAAAAAAAAAAAAAAAAAAAAAAAAAAAAAAAAAAAAAAAAAAAAAAAAAAAAAAAAAAAAAAAAAAAAAAAAAAAAAAAAAAAAAAAAAAAAAAAAAAAAAAAAAAAAAAAAAAAAAAAAAAAAAAAAAAAAAAAAAAAAAAAAAAAAAAAAAAAAAAAAAAAAAAAAAAAAAAAAAAAAAAAAAAAAAAAAAAAAAAAAAAAAAAAAAAAAAAAAAAAAAAAAAAAAAAAAAAAAAAAAAAAAAAAAAAAAAAAAAAAAAAAAAAAAAAAAAAAAAAAAAAAAAAAAAAAAAAAAAAAAAAAAAAAAAAAAAAAAAAAAAAAAAAAAAAAAAAAAAAAAAAAAAAAAAAAAAAAAAAAAAAAAAAAAAAAAAAAAAAAAAAAAAAAAAAAAAAAAAAAAAAAAAAAAAAAAAAAAAAAAAAAAAAAAAAAAAAAAAAAAAAAAAAAAAAAAAAAAAAAAAAAAAAAAAAAAAAAAAAAAAAAAAPZYQMSxIc20DlN0x9VdWg+FNvXV05YsDQr4qnJfhOUk8TsBDDuXbG4TQkw2/7/yCFI5OJsmqpd/WnF6vlH3xVEbiNY=</c2pa:manifest></metadata><path d="M99.7,209.7C89.8,214.1 68.1,211.5 64.5,210.3C61,209.1 77.6,205.7 78.4,202.5C79.2,199.3 68.4,192.8 69.5,191C70.5,189.3 82.2,194.3 84.9,192C87.5,189.8 83.4,178.3 85.3,177.4C87.2,176.6 92.9,187.3 96.4,186.9C99.8,186.4 103.9,174.4 106,174.8C108,175.1 105.6,187.5 108.5,189.1C111.5,190.6 125.1,180.6 123.6,184C122.1,187.5 109.5,205.3 99.7,209.7Z" fill="#3D2B3D" stroke="#3D2B3D" stroke-width="10" stroke-linejoin="round"></path><path d="M150,236C158,214 158,194 150,178" fill="none" stroke="#3D2B3D" stroke-width="14" stroke-linecap="round" stroke-linejoin="round"></path><path d="M166,214C177.2,210.8 180.4,199.6 172.4,196.4C166.8,194.8 165.2,202 170.8,203.6" fill="none" stroke="#3D2B3D" stroke-width="14" stroke-linecap="round" stroke-linejoin="round"></path><path d="M99.7,209.7C89.8,214.1 68.1,211.5 64.5,210.3C61,209.1 77.6,205.7 78.4,202.5C79.2,199.3 68.4,192.8 69.5,191C70.5,189.3 82.2,194.3 84.9,192C87.5,189.8 83.4,178.3 85.3,177.4C87.2,176.6 92.9,187.3 96.4,186.9C99.8,186.4 103.9,174.4 106,174.8C108,175.1 105.6,187.5 108.5,189.1C111.5,190.6 125.1,180.6 123.6,184C122.1,187.5 109.5,205.3 99.7,209.7Z" fill="#6BB85F" stroke="#5B8853" stroke-width="3" stroke-linejoin="round"></path><path d="M99.1,208.5L87.5,182.4" fill="none" stroke="#4E9445" stroke-width="2.4" stroke-linecap="round" stroke-linejoin="round" opacity="0.8"></path><path d="M98,206L71.6,196.9" fill="none" stroke="#4E9445" stroke-width="2" stroke-linecap="round" stroke-linejoin="round" opacity="0.7"></path><path d="M98,206L108.9,180.3" fill="none" stroke="#4E9445" stroke-width="2" stroke-linecap="round" stroke-linejoin="round" opacity="0.7"></path><path d="M78.9,198.1C78.3,196.8 79.7,194.8 82.1,193.7C84.5,192.7 87,192.9 87.6,194.3C88.2,195.6 86.7,197.6 84.3,198.7C81.9,199.8 79.5,199.5 78.9,198.1Z" fill="#A6DA9A" opacity="0.9"></path><path d="M150,236C158,214 158,194 150,178" fill="none" stroke="#6BB85F" stroke-width="4" stroke-linecap="round" stroke-linejoin="round"></path><path d="M166,214C177.2,210.8 180.4,199.6 172.4,196.4C166.8,194.8 165.2,202 170.8,203.6" fill="none" stroke="#6BB85F" stroke-width="4" stroke-linecap="round" stroke-linejoin="round"></path><path d="M150,166C158,161.8 157.6,153.5 150,150C142.4,153.5 142,161.8 150,166Z" fill="#3D2B3D" stroke="#3D2B3D" stroke-width="10" stroke-linejoin="round"></path><path d="M150,166C156.4,172.3 164.2,169.4 165.2,161.1C159.5,154.9 151.5,157.1 150,166Z" fill="#3D2B3D" stroke="#3D2B3D" stroke-width="10" stroke-linejoin="round"></path><path d="M150,166C146,174.1 151.2,180.6 159.4,178.9C163.5,171.6 158.9,164.7 150,166Z" fill="#3D2B3D" stroke="#3D2B3D" stroke-width="10" stroke-linejoin="round"></path><path d="M150,166C141.1,164.7 136.5,171.6 140.6,178.9C148.8,180.6 154,174.1 150,166Z" fill="#3D2B3D" stroke="#3D2B3D" stroke-width="10" stroke-linejoin="round"></path><path d="M150,166C148.5,157.1 140.5,154.9 134.8,161.1C135.8,169.4 143.6,172.3 150,166Z" fill="#3D2B3D" stroke="#3D2B3D" stroke-width="10" stroke-linejoin="round"></path><path d="M145.5,166C145.5,163.5 147.5,161.5 150,161.5C152.5,161.5 154.5,163.5 154.5,166C154.5,168.5 152.5,170.5 150,170.5C147.5,170.5 145.5,168.5 145.5,166Z" fill="#3D2B3D" stroke="#3D2B3D" stroke-width="10" stroke-linejoin="round"></path><path d="M86.7,224C86.7,213 95.3,204 105.9,204C116.5,204 125.1,213 125.1,224C125.1,235 116.5,244 105.9,244C95.3,244 86.7,235 86.7,224Z" fill="#3D2B3D" stroke="#3D2B3D" stroke-width="10" stroke-linejoin="round"></path><path d="M118.9,224C118.9,213 127.5,204 138.1,204C148.7,204 157.3,213 157.3,224C157.3,235 148.7,244 138.1,244C127.5,244 118.9,235 118.9,224Z" fill="#3D2B3D" stroke="#3D2B3D" stroke-width="10" stroke-linejoin="round"></path><path d="M104.3,224C104.3,213 112.2,204 122,204C131.8,204 139.7,213 139.7,224C139.7,235 131.8,244 122,244C112.2,244 104.3,235 104.3,224Z" fill="#3D2B3D" stroke="#3D2B3D" stroke-width="10" stroke-linejoin="round"></path><path d="M122,206C122,198 126,194 130,192" fill="none" stroke="#3D2B3D" stroke-width="16" stroke-linecap="round" stroke-linejoin="round"></path><path d="M150,166C158,161.8 157.6,153.5 150,150C142.4,153.5 142,161.8 150,166Z" fill="#FFB43D" stroke="#BD853D" stroke-width="3" stroke-linejoin="round"></path><path d="M150,163L150,154.5" fill="none" stroke="#FFD58A" stroke-width="1.8" stroke-linecap="round" stroke-linejoin="round" opacity="0.9"></path><path d="M150,166C156.4,172.3 164.2,169.4 165.2,161.1C159.5,154.9 151.5,157.1 150,166Z" fill="#FFB43D" stroke="#BD853D" stroke-width="3" stroke-linejoin="round"></path><path d="M152.9,165.1L161,162.4" fill="none" stroke="#FFD58A" stroke-width="1.8" stroke-linecap="round" stroke-linejoin="round" opacity="0.9"></path><path d="M150,166C146,174.1 151.2,180.6 159.4,178.9C163.5,171.6 158.9,164.7 150,166Z" fill="#FFB43D" stroke="#BD853D" stroke-width="3" stroke-linejoin="round"></path><path d="M151.8,168.4L156.8,175.3" fill="none" stroke="#FFD58A" stroke-width="1.8" stroke-linecap="round" stroke-linejoin="round" opacity="0.9"></path><path d="M150,166C141.1,164.7 136.5,171.6 140.6,178.9C148.8,180.6 154,174.1 150,166Z" fill="#FFB43D" stroke="#BD853D" stroke-width="3" stroke-linejoin="round"></path><path d="M148.2,168.4L143.2,175.3" fill="none" stroke="#FFD58A" stroke-width="1.8" stroke-linecap="round" stroke-linejoin="round" opacity="0.9"></path><path d="M150,166C148.5,157.1 140.5,154.9 134.8,161.1C135.8,169.4 143.6,172.3 150,166Z" fill="#FFB43D" stroke="#BD853D" stroke-width="3" stroke-linejoin="round"></path><path d="M147.1,165.1L139,162.4" fill="none" stroke="#FFD58A" stroke-width="1.8" stroke-linecap="round" stroke-linejoin="round" opacity="0.9"></path><path d="M145.5,166C145.5,163.5 147.5,161.5 150,161.5C152.5,161.5 154.5,163.5 154.5,166C154.5,168.5 152.5,170.5 150,170.5C147.5,170.5 145.5,168.5 145.5,166Z" fill="#F28C1A" stroke="#B46B26" stroke-width="3" stroke-linejoin="round"></path><path d="M86.7,224C86.7,213 95.3,204 105.9,204C116.5,204 125.1,213 125.1,224C125.1,235 116.5,244 105.9,244C95.3,244 86.7,235 86.7,224Z" fill="#E06F14" stroke="#A95822" stroke-width="3" stroke-linejoin="round"></path><path d="M94,216.4C94,213.3 95.7,210.8 97.8,210.8C99.9,210.8 101.7,213.3 101.7,216.4C101.7,219.5 99.9,222 97.8,222C95.7,222 94,219.5 94,216.4Z" fill="#FFB566" opacity="0.9"></path><path d="M105.9,206.8Q102.8,224 105.9,242" fill="none" stroke="#B75E1E" stroke-width="2" stroke-linecap="round" stroke-linejoin="round" opacity="0.6"></path><path d="M118.9,224C118.9,213 127.5,204 138.1,204C148.7,204 157.3,213 157.3,224C157.3,235 148.7,244 138.1,244C127.5,244 118.9,235 118.9,224Z" fill="#E06F14" stroke="#A95822" stroke-width="3" stroke-linejoin="round"></path><path d="M126.2,216.4C126.2,213.3 127.9,210.8 130,210.8C132.2,210.8 133.9,213.3 133.9,216.4C133.9,219.5 132.2,222 130,222C127.9,222 126.2,219.5 126.2,216.4Z" fill="#FFB566" opacity="0.9"></path><path d="M138.1,206.8Q135,224 138.1,242" fill="none" stroke="#B75E1E" stroke-width="2" stroke-linecap="round" stroke-linejoin="round" opacity="0.6"></path><path d="M104.3,224C104.3,213 112.2,204 122,204C131.8,204 139.7,213 139.7,224C139.7,235 131.8,244 122,244C112.2,244 104.3,235 104.3,224Z" fill="#F2851F" stroke="#B46629" stroke-width="3" stroke-linejoin="round"></path><path d="M111,216.4C111,213.3 112.6,210.8 114.6,210.8C116.5,210.8 118.1,213.3 118.1,216.4C118.1,219.5 116.5,222 114.6,222C112.6,222 111,219.5 111,216.4Z" fill="#FFB566" opacity="0.9"></path><path d="M122,206.8Q119.2,224 122,242" fill="none" stroke="#C56F27" stroke-width="2" stroke-linecap="round" stroke-linejoin="round" opacity="0.6"></path><path d="M122,206C122,198 126,194 130,192" fill="none" stroke="#7A5A2A" stroke-width="6" stroke-linecap="round" stroke-linejoin="round"></path></svg>