<svg xmlns="http://www.w3.org/2000/svg" width="128" height="128" viewBox="0 0 256 256" xmlns:c2pa="http://c2pa.org/manifest"><metadata><c2pa:manifest>AAAWgmp1bWIAAAAeanVtZGMycGEAEQAQgAAAqgA4m3EDYzJwYQAAABZcanVtYgAAAEdqdW1kYzJtYQARABCAAACqADibcQN1cm46YzJwYTpiNDg4YWVhOC02NGQ2LTRiMTEtODgzNy00ZjdjZjEzNTgzMTEAAAADl2p1bWIAAAApanVtZGMyYXMAEQAQgAAAqgA4m3EDYzJwYS5hc3NlcnRpb25zAAAAALxqdW1iAAAARGp1bWRjYm9yABEAEIAAAKoAOJtxE2MycGEuaW5ncmVkaWVudC52MwAAAAAYYzJzaNDByXfA1mLQIEPWCe9oU48AAABwY2JvcqNpZGM6Zm9ybWF0bWltYWdlL3N2Zyt4bWxqaW5zdGFuY2VJRHgseG1wOmlpZDpjODA1YWVlZC0zMGYxLTRhYjEtOTM2Yi04MWQwYjMwOWFiOTdscmVsYXRpb25zaGlwaHBhcmVudE9mAAAB4mp1bWIAAABBanVtZGNib3IAEQAQgAAAqgA4m3ETYzJwYS5hY3Rpb25zLnYyAAAAABhjMnNoJp+Orft/JJy3M2+0z1QUlgAAAZljYm9yomdhY3Rpb25zgqJmYWN0aW9ua2MycGEub3BlbmVkanBhcmFtZXRlcnOha2luZ3JlZGllbnRzgaJjdXJseC1zZWxmI2p1bWJmPWMycGEuYXNzZXJ0aW9ucy9jMnBhLmluZ3JlZGllbnQudjNkaGFzaFgg6uL4KiUDvjZ2A+Raordk8ESEmSX7TIBCpB/MPUibaXikZmFjdGlvbngdY29tLmFudGhyb3BpYy5jbGF1ZGUucHJvdmlkZWRqcGFyYW1ldGVyc6F4H2NvbS5hbnRocm9waWMub3JpZ2luLWNvbmZpZGVuY2VndW5rbm93bmtkZXNjcmlwdGlvbnhmQ2xhdWRlIHByb3ZpZGVkIHRoaXMgZmlsZSBhdCB0aGUgcmVxdWVzdCBvZiBhIHVzZXIgYW5kIG1heSBoYXZlIGNyZWF0ZWQgb3IgbW9kaWZpZWQgdGhlIGZpbGUgY29udGVudHMubXNvZnR3YXJlQWdlbnShZG5hbWVmQ2xhdWRlcmFsbEFjdGlvbnNJbmNsdWRlZPUAAADIanVtYgAAAEBqdW1kY2JvcgARABCAAACqADibcRNjMnBhLmhhc2guZGF0YQAAAAAYYzJzaFzZprBV6nutTL9zY/JMFGQAAACAY2JvcqVjYWxnZnNoYTI1NmNwYWRNAAAAAAAAAAAAAAAAAGRoYXNoWCB3mPxUo9jRRwAD/hCdl88KZxtB7KDsNrdJOn/gCqDaSmRuYW1lbmp1bWJmIG1hbmlmZXN0amV4Y2x1c2lvbnOBomVzdGFydBiWZmxlbmd0aBkeBAAAAj5qdW1iAAAAJ2p1bWRjMmNsABEAEIAAAKoAOJtxA2MycGEuY2xhaW0udjIAAAACD2Nib3KlY2FsZ2ZzaGEyNTZpc2lnbmF0dXJleE1zZWxmI2p1bWJmPS9jMnBhL3VybjpjMnBhOmI0ODhhZWE4LTY0ZDYtNGIxMS04ODM3LTRmN2NmMTM1ODMxMS9jMnBhLnNpZ25hdHVyZWppbnN0YW5jZUlEeCx4bXA6aWlkOjhmMWNlYmEwLTA2NmItNDE2Yy04MjM3LWQ2MjIzMTY5NjQ5MnJjcmVhdGVkX2Fzc2VydGlvbnODomN1cmx4LXNlbGYjanVtYmY9YzJwYS5hc3NlcnRpb25zL2MycGEuaW5ncmVkaWVudC52M2RoYXNoWCDq4vgqJQO+NnYD5Fqit2TwRISZJftMgEKkH8w9SJtpeKJjdXJseCpzZWxmI2p1bWJmPWMycGEuYXNzZXJ0aW9ucy9jMnBhLmFjdGlvbnMudjJkaGFzaFgg2enNFsWB3d6i7OpXGCPl4fRc8Rtzw8/g2csiOS4HiK+iY3VybHgpc2VsZiNqdW1iZj1jMnBhLmFzc2VydGlvbnMvYzJwYS5oYXNoLmRhdGFkaGFzaFgg8qN0Ar+NGKwoDntNIClwxIx1OYt0UdS5EyC78XGBm8F0Y2xhaW1fZ2VuZXJhdG9yX2luZm+jZG5hbWVvQW50aHJvcGljIEZpbGVzZ3ZlcnNpb25lMS4wLjBrc3BlY1ZlcnNpb25lMi40LjAAABA4anVtYgAAAChqdW1kYzJjcwARABCAAACqADibcQNjMnBhLnNpZ25hdHVyZQAAABAIY2JvctKEWQISogEmGCFZAgowggIGMIIBjaADAgECAhRA5aAK7sI50L64g/oGQgU9Z1UTADAKBggqhkjOPQQDAzBJMRcwFQYDVQQKEw5BbnRocm9waWMsIFBCQzEuMCwGA1UEAxMlQW50aHJvcGljIENvbnRlbnQgQ3JlZGVudGlhbHMgUm9vdCBDQTAeFw0yNjA4MDcxODQzNTZaFw0yODA4MDYxOTQzNTZaMEQxFzAVBgNVBAoTDkFudGhyb3BpYywgUEJDMSkwJwYDVQQDEyBBbnRocm9waWMgQ2xhdWRlIENvbnRlbnQgU2lnbmluZzBZMBMGByqGSM49AgEGCCqGSM49AwEHA0IABJh6CmvLUBgFFNU0vUKlOVtE6djd17L5SuwX0LemFisBM3dkd/3cyjxFA3Qo5S46fX0/ihY0VZ7mfb9KF703t5OjWDBWMA4GA1UdDwEB/wQEAwIHgDAVBgNVHSUEDjAMBgorBgEEAYPoXgIBMAwGA1UdEwEB/wQCMAAwHwYDVR0jBBgwFoAUzlHiBIFOZFsj+OPEz5o+nMHXXMIwCgYIKoZIzj0EAwMDZwAwZAIwMXMdFJ4BetLLVY7ORuE9noqbbAZOZn/aArXyTwFAZfKrPzxF2vPoJNf1+UCdg1XGAjBwX1zd9WGqYkqmL5SFqw1QySjr1zJfpJM9+1rdDwSPLMOPOjKuiXjoU/pUUeG9RwmhY3BhZFkNngAAAAAAAAAAAAAAAAAAAAAAAAAAAAAAAAAAAAAAAAAAAAAAAAAAAAAAAAAAAAAAAAAAAAAAAAAAAAAAAAAAAAAAAAAAAAAAAAAAAAAAAAAAAAAAAAAAAAAAAAAAAAAAAAAAAAAAAAAAAAAAAAAAAAAAAAAAAAAAAAAAAAAAAAAAAAAAAAAAAAAAAAAAAAAAAAAAAAAAAAAAAAAAAAAAAAAAAAAAAAAAAAAAAAAAAAAAAAAAAAAAAAAAAAAAAAAAAAAAAAAAAAAAAAAAAAAAAAAAAAAAAAAAAAAAAAAAAAAAAAAAAAAAAAAAAAAAAAAAAAAAAAAAAAAAAAAAAAAAAAAAAAAAAAAAAAAAAAAAAAAAAAAAAAAAAAAAAAAAAAAAAAAAAAAAAAAAAAAAAAAAAAAAAAAAAAAAAAAAAAAAAAAAAAAAAAAAAAAAAAAAAAAAAAAAAAAAAAAAAAAAAAAAAAAAAAAAAAAAAAAAAAAAAAAAAAAAAAAAAAAAAAAAAAAAAAAAAAAAAAAAAAAAAAAAAAAAAAAAAAAAAAAAAAAAAAAAAAAAAAAAAAAAAAAAAAAAAAAAAAAAAAAAAAAAAAAAAAAAAAAAAAAAAAAAAAAAAAAAAAAAAAAAAAAAAAAAAAAAAAAAAAAAAAAAAAAAAAAAAAAAAAAAAAAAAAAAAAAAAAAAAAAAAAAAAAAAAAAAAAAAAAAAAAAAAAAAAAAAAAAAAAAAAAAAAAAAAAAAAAAAAAAAAAAAAAAAAAAAAAAAAAAAAAAAAAAAAAAAAAAAAAAAAAAAAAAAAAAAAAAAAAAAAAAAAAAAAAAAAAAAAAAAAAAAAAAAAAAAAAAAAAAAAAAAAAAAAAAAAAAAAAAAAAAAAAAAAAAAAAAAAAAAAAAAAAAAAAAAAAAAAAAAAAAAAAAAAAAAAAAAAAAAAAAAAAAAAAAAAAAAAAAAAAAAAAAAAAAAAAAAAAAAAAAAAAAAAAAAAAAAAAAAAAAAAAAAAAAAAAAAAAAAAAAAAAAAAAAAAAAAAAAAAAAAAAAAAAAAAAAAAAAAAAAAAAAAAAAAAAAAAAAAAAAAAAAAAAAAAAAAAAAAAAAAAAAAAAAAAAAAAAAAAAAAAAAAAAAAAAAAAAAAAAAAAAAAAAAAAAAAAAAAAAAAAAAAAAAAAAAAAAAAAAAAAAAAAAAAAAAAAAAAAAAAAAAAAAAAAAAAAAAAAAAAAAAAAAAAAAAAAAAAAAAAAAAAAAAAAAAAAAAAAAAAAAAAAAAAAAAAAAAAAAAAAAAAAAAAAAAAAAAAAAAAAAAAAAAAAAAAAAAAAAAAAAAAAAAAAAAAAAAAAAAAAAAAAAAAAAAAAAAAAAAAAAAAAAAAAAAAAAAAAAAAAAAAAAAAAAAAAAAAAAAAAAAAAAAAAAAAAAAAAAAAAAAAAAAAAAAAAAAAAAAAAAAAAAAAAAAAAAAAAAAAAAAAAAAAAAAAAAAAAAAAAAAAAAAAAAAAAAAAAAAAAAAAAAAAAAAAAAAAAAAAAAAAAAAAAAAAAAAAAAAAAAAAAAAAAAAAAAAAAAAAAAAAAAAAAAAAAAAAAAAAAAAAAAAAAAAAAAAAAAAAAAAAAAAAAAAAAAAAAAAAAAAAAAAAAAAAAAAAAAAAAAAAAAAAAAAAAAAAAAAAAAAAAAAAAAAAAAAAAAAAAAAAAAAAAAAAAAAAAAAAAAAAAAAAAAAAAAAAAAAAAAAAAAAAAAAAAAAAAAAAAAAAAAAAAAAAAAAAAAAAAAAAAAAAAAAAAAAAAAAAAAAAAAAAAAAAAAAAAAAAAAAAAAAAAAAAAAAAAAAAAAAAAAAAAAAAAAAAAAAAAAAAAAAAAAAAAAAAAAAAAAAAAAAAAAAAAAAAAAAAAAAAAAAAAAAAAAAAAAAAAAAAAAAAAAAAAAAAAAAAAAAAAAAAAAAAAAAAAAAAAAAAAAAAAAAAAAAAAAAAAAAAAAAAAAAAAAAAAAAAAAAAAAAAAAAAAAAAAAAAAAAAAAAAAAAAAAAAAAAAAAAAAAAAAAAAAAAAAAAAAAAAAAAAAAAAAAAAAAAAAAAAAAAAAAAAAAAAAAAAAAAAAAAAAAAAAAAAAAAAAAAAAAAAAAAAAAAAAAAAAAAAAAAAAAAAAAAAAAAAAAAAAAAAAAAAAAAAAAAAAAAAAAAAAAAAAAAAAAAAAAAAAAAAAAAAAAAAAAAAAAAAAAAAAAAAAAAAAAAAAAAAAAAAAAAAAAAAAAAAAAAAAAAAAAAAAAAAAAAAAAAAAAAAAAAAAAAAAAAAAAAAAAAAAAAAAAAAAAAAAAAAAAAAAAAAAAAAAAAAAAAAAAAAAAAAAAAAAAAAAAAAAAAAAAAAAAAAAAAAAAAAAAAAAAAAAAAAAAAAAAAAAAAAAAAAAAAAAAAAAAAAAAAAAAAAAAAAAAAAAAAAAAAAAAAAAAAAAAAAAAAAAAAAAAAAAAAAAAAAAAAAAAAAAAAAAAAAAAAAAAAAAAAAAAAAAAAAAAAAAAAAAAAAAAAAAAAAAAAAAAAAAAAAAAAAAAAAAAAAAAAAAAAAAAAAAAAAAAAAAAAAAAAAAAAAAAAAAAAAAAAAAAAAAAAAAAAAAAAAAAAAAAAAAAAAAAAAAAAAAAAAAAAAAAAAAAAAAAAAAAAAAAAAAAAAAAAAAAAAAAAAAAAAAAAAAAAAAAAAAAAAAAAAAAAAAAAAAAAAAAAAAAAAAAAAAAAAAAAAAAAAAAAAAAAAAAAAAAAAAAAAAAAAAAAAAAAAAAAAAAAAAAAAAAAAAAAAAAAAAAAAAAAAAAAAAAAAAAAAAAAAAAAAAAAAAAAAAAAAAAAAAAAAAAAAAAAAAAAAAAAAAAAAAAAAAAAAAAAAAAAAAAAAAAAAAAAAAAAAAAAAAAAAAAAAAAAAAAAAAAAAAAAAAAAAAAAAAAAAAAAAAAAAAAAAAAAAAAAAAAAAAAAAAAAAAAAAAAAAAAAAAAAAAAAAAAAAAAAAAAAAAAAAAAAAAAAAAAAAAAAAAAAAAAAAAAAAAAAAAAAAAAAAAAAAAAAAAAAAAAAAAAAAAAAAAAAAAAAAAAAAAAAAAAAAAAAAAAAAAAAAAAAAAAAAAAAAAAAAAAAAAAAAAAAAAAAAAAAAAAAAAAAAAAAAAAAAAAAAAAAAAAAAAAAAAAAAAAAAAAAAAAAAAAAAAAAAAAAAAAAAAAAAAAAAAAAAAAAAAAAAAAAAAAAAAAAAAAAAAAAAAAAAAAAAAAAAAAAAAAAAAAAAAAAAAAAAAAAAAAAAAAAAAAAAAAAAAAAAAAAAAAAAAAAAAAAAAAAAAAAAAAAAAAAAAAAAAAAAAAAAAAAAAAAAAAAAAAAAAAAAAAAAAAAAAAAAAAAAAAAAAAAAAAAAAAAAAAAAAAAAAAAAAAAAAAAAAAAAAAAAAAAAAAAAAAAAAAAAAAAAAAAAAAAAAAAAAAAAAAAAAAAAAAAAAAAAAAAAAAAAAAAAAAAAAAAAAAAAAAAAAAAAAAAAAAAAAAAAAAAAAAAAAAAAAAAAAAAAAAAAAAAAAAAAAAAAAAAAAAAAAAAAAAAAAAAAAAAAAAAAAAAAAAAAAAAAAAAAAAAAAAAAAAAAAAAAAAAAAAAAAAAAAAAAAAAAAAAAAAAAAAAAAAAAAAAAAAAAAAAAAAAAAAAAAAAAAAAAAAAAAAAAAAAAAAAAAAAAAAAAAAAAAAAAAAAAAAAAAAAAAAAAAAAAAAAAAAAAAAAAAAAAAAAAAAAAAAAAAAAAAAAAAAAAAAAAAAAAAAAAAAAAAAAAAAAAAAAAAAAAAAAAAAAAAAAAAAAAAAAAAAAAAAAAAAAAAAAAAAAAAAAAAAAAAAAAAAAAAAAAAAAAAAAAAAAAAAAAAAAAAAAAAAAAAAAAAAAAAAAAAAAAAAAAAAAAAAAAAAAAAAAAAAAAAAAAAAAAAAAAAAAAAAAAAAAAAAAAAAAAAAAAAAAAAAAAAAAAAAAAAAAAAAAAAAAAAAAAAAAAAAAAAAAAAAAAAAAAAAAAAAAAAAAAAAAAAAAAAAAAAAAAAAAAAAAAAAAAAAAAAAAAAAAAAAAAAAAAAAAAAAAAAAAAAAAAAAAAAAAAAAAAAAAAAAAAAAAAAAAAAAAAAAAAAAAAAAAAAAAAAAAAAAAAAAAAAAAAAAAAAAAAAAAAAAAAAAAAAAAAAAAAAAAAAAAAAAAAAAAAAAAAAAAAAAAAAAAAAAAAAAAAAAAAAAAAAAAAAAAAAAAAAAAAAAAAAAAAAAAAAAAAAAAAAAAAAAAAAAAAAAAAAAAAAAAAAAAAAAAAAAAAAAAAAAAAAAAAAAAAAAAAAAAAAAAAAAAAAAAAAAAAAAAAAAAAAAAAAAAAAAAAAAAAAAAAAAAAAAAAAAAAAAAAAAAAAAAAAAAAAAAAAAAAAAAAAAAAAAAAAAAAAAAAAAAAAAAAAAAAAAAAAAAAAAAAAAAAAAAAAAAAAAAAAAAAAAAAAAAAAAAAAAAAAAAAAAAAAAAAAAAAAAAAAAAAAAAAAAAAAAAAAAAAAAAAAAAAAAAAAAAAAAAAAAAAAAAAAAAAAAAAAAAAAAAAAAAAAAAAAAAAAAAAAAAAAAAAAAAAAAAAAAAAAAAAAAAAAAAAAAAAAAAAAAAAAAAAAAAAAAAAAAAAAAAAAAAAAAAAAAAAAAAAAAAAAPZYQItW947kPU16VpwsoLfJRejrBuStnEZloNGJHjbVSHQ0LvYCsjEuTxpUYL65R/JfSY0WAK2UWbhWlAYKfInat4U=</c2pa:manifest></metadata><path d="M128,244C128,184.8 128,140.4 128,96" fill="none" stroke="#2B3550" stroke-width="19" stroke-linecap="round" stroke-linejoin="round"></path><path d="M128,196Q73.8,172 66,150" fill="none" stroke="#2B3550" stroke-width="15.4" stroke-linecap="round" stroke-linejoin="round"></path><path d="M128,204Q183.8,180 192,158" fill="none" stroke="#2B3550" stroke-width="15.4" stroke-linecap="round" stroke-linejoin="round"></path><path d="M129,196C134,174.1 153.3,165.5 172.9,176.5C167.9,198.4 148.6,207 129,196Z" fill="#2B3550" stroke="#2B3550" stroke-width="10" stroke-linejoin="round"></path><path d="M127,214C122.1,193.2 103.7,185 85,195.3C89.8,216.1 108.3,224.3 127,214Z" fill="#2B3550" stroke="#2B3550" stroke-width="10" stroke-linejoin="round"></path><path d="M128,232C127.6,216.7 139,207.1 154,210.1C154.5,225.5 143,235.1 128,232Z" fill="#2B3550" stroke="#2B3550" stroke-width="10" stroke-linejoin="round"></path><path d="M128,244C128,184.8 128,140.4 128,96" fill="none" stroke="#6FA39C" stroke-width="9" stroke-linecap="round" stroke-linejoin="round"></path><path d="M128,196Q73.8,172 66,150" fill="none" stroke="#6FA39C" stroke-width="5.4" stroke-linecap="round" stroke-linejoin="round"></path><path d="M128,204Q183.8,180 192,158" fill="none" stroke="#6FA39C" stroke-width="5.4" stroke-linecap="round" stroke-linejoin="round"></path><path d="M129,196C134,174.1 153.3,165.5 172.9,176.5C167.9,198.4 148.6,207 129,196Z" fill="#86B9AE" stroke="#678C8E" stroke-width="3" stroke-linejoin="round"></path><path d="M129,196C134,174.1 153.3,165.5 172.9,176.5Q150,184.3 129,196Z" fill="#C4E3DA"></path><path d="M133.2,193.7Q150,184.3 166.6,178.9" fill="none" stroke="#678C8E" stroke-width="2.2" stroke-linecap="round" stroke-linejoin="round" opacity="0.8"></path><path d="M127,214C122.1,193.2 103.7,185 85,195.3C89.8,216.1 108.3,224.3 127,214Z" fill="#86B9AE" stroke="#678C8E" stroke-width="3" stroke-linejoin="round"></path><path d="M127,214C122.1,193.2 103.7,185 85,195.3Q106.8,202.8 127,214Z" fill="#C4E3DA"></path><path d="M122.9,211.8Q106.8,202.8 91,197.6" fill="none" stroke="#678C8E" stroke-width="2.2" stroke-linecap="round" stroke-linejoin="round" opacity="0.8"></path><path d="M128,232C127.6,216.7 139,207.1 154,210.1C154.5,225.5 143,235.1 128,232Z" fill="#86B9AE" stroke="#678C8E" stroke-width="3" stroke-linejoin="round"></path><path d="M128,232C127.6,216.7 139,207.1 154,210.1Q140.1,220 128,232Z" fill="#C4E3DA"></path><path d="M130.5,229.6Q140.1,220 150.2,213" fill="none" stroke="#678C8E" stroke-width="2.2" stroke-linecap="round" stroke-linejoin="round" opacity="0.8"></path><path d="M66,150C72.6,136.5 61.2,124.3 49.2,125.1C44,135.9 51,151.1 66,150Z" fill="#2B3550" stroke="#2B3550" stroke-width="10" stroke-linejoin="round"></path><path d="M192,158C204.7,159.2 211.3,146.3 207.3,137C197.1,136 186.9,146.3 192,158Z" fill="#2B3550" stroke="#2B3550" stroke-width="10" stroke-linejoin="round"></path><path d="M66,150C72.6,136.5 61.2,124.3 49.2,125.1C44,135.9 51,151.1 66,150Z" fill="#F2ABC2" stroke="#AE839B" stroke-width="3" stroke-linejoin="round"></path><path d="M64.3,147.5L51.7,128.9" fill="none" stroke="#B688A0" stroke-width="2" stroke-linecap="round" stroke-linejoin="round" opacity="0.7"></path><path d="M52.1,141.3C50.6,139.1 50.2,136.8 51.2,136.1C52.1,135.5 54.1,136.7 55.6,138.9C57,141.1 57.5,143.4 56.5,144.1C55.6,144.7 53.6,143.5 52.1,141.3Z" fill="#F9D5E1" opacity="0.8"></path><path d="M192,158C204.7,159.2 211.3,146.3 207.3,137C197.1,136 186.9,146.3 192,158Z" fill="#F2ABC2" stroke="#AE839B" stroke-width="3" stroke-linejoin="round"></path><path d="M193.8,155.6L205,140.1" fill="none" stroke="#B688A0" stroke-width="2" stroke-linecap="round" stroke-linejoin="round" opacity="0.7"></path><path d="M195.1,144.2C196.5,142.3 198.2,141.3 199,141.9C199.8,142.4 199.3,144.4 198,146.3C196.6,148.1 194.9,149.2 194.1,148.6C193.3,148 193.8,146 195.1,144.2Z" fill="#F9D5E1" opacity="0.8"></path><path d="M128,96C146.9,92 152.2,67.5 128,62.9C103.9,67.5 109.1,92 128,96Z" fill="#2B3550" stroke="#2B3550" stroke-width="10" stroke-linejoin="round"></path><path d="M128,96C145.3,102.8 173,88.2 160.5,72.6C138.9,63.6 118.5,83.6 128,96Z" fill="#2B3550" stroke="#2B3550" stroke-width="10" stroke-linejoin="round"></path><path d="M128,96C137.5,83.6 117.1,63.6 95.5,72.6C83,88.2 110.7,102.8 128,96Z" fill="#2B3550" stroke="#2B3550" stroke-width="10" stroke-linejoin="round"></path><path d="M128,96C133.5,109.6 167.6,113.4 174,96C167.6,78.6 133.5,82.4 128,96Z" fill="#2B3550" stroke="#2B3550" stroke-width="10" stroke-linejoin="round"></path><path d="M128,96C122.5,82.4 88.4,78.6 82,96C88.4,113.4 122.5,109.6 128,96Z" fill="#2B3550" stroke="#2B3550" stroke-width="10" stroke-linejoin="round"></path><path d="M128,96C118.5,108.4 138.9,128.4 160.5,119.4C173,103.8 145.3,89.2 128,96Z" fill="#2B3550" stroke="#2B3550" stroke-width="10" stroke-linejoin="round"></path><path d="M128,96C110.7,89.2 83,103.8 95.5,119.4C117.1,128.4 137.5,108.4 128,96Z" fill="#2B3550" stroke="#2B3550" stroke-width="10" stroke-linejoin="round"></path><path d="M128,96C109.1,100 103.9,124.5 128,129.1C152.2,124.5 146.9,100 128,96Z" fill="#2B3550" stroke="#2B3550" stroke-width="10" stroke-linejoin="round"></path><path d="M128,96C146.9,92 152.2,67.5 128,62.9C103.9,67.5 109.1,92 128,96Z" fill="#F7C6D6" stroke="#B295A8" stroke-width="3" stroke-linejoin="round"></path><path d="M116.9,77.5C116.9,74.5 118.5,72.2 120.4,72.2C122.4,72.2 124,74.5 124,77.5C124,80.4 122.4,82.8 120.4,82.8C118.5,82.8 116.9,80.4 116.9,77.5Z" fill="#FFE6EE" opacity="0.9"></path><path d="M128,96C145.3,102.8 173,88.2 160.5,72.6C138.9,63.6 118.5,83.6 128,96Z" fill="#F7C6D6" stroke="#B295A8" stroke-width="3" stroke-linejoin="round"></path><path d="M138.3,77.2C141.2,75.1 144.7,74.3 146.1,75.3C147.5,76.3 146.3,78.8 143.4,80.9C140.5,82.9 137.1,83.8 135.7,82.8C134.3,81.8 135.5,79.3 138.3,77.2Z" fill="#FFE6EE" opacity="0.9"></path><path d="M128,96C137.5,83.6 117.1,63.6 95.5,72.6C83,88.2 110.7,102.8 128,96Z" fill="#F7C6D6" stroke="#B295A8" stroke-width="3" stroke-linejoin="round"></path><path d="M101.9,88.6C99,86.5 97.8,84 99.2,83C100.6,82 104.1,82.8 107,84.9C109.8,87 111,89.5 109.6,90.5C108.2,91.5 104.8,90.6 101.9,88.6Z" fill="#FFE6EE" opacity="0.9"></path><path d="M128,96C133.5,109.6 167.6,113.4 174,96C167.6,78.6 133.5,82.4 128,96Z" fill="#F7C6D6" stroke="#B295A8" stroke-width="3" stroke-linejoin="round"></path><path d="M153.8,88C157.8,88 161.1,89.1 161.1,90.6C161.1,92 157.8,93.1 153.8,93.1C149.7,93.1 146.4,92 146.4,90.6C146.4,89.1 149.7,88 153.8,88Z" fill="#FFE6EE" opacity="0.9"></path><path d="M128,96C122.5,82.4 88.4,78.6 82,96C88.4,113.4 122.5,109.6 128,96Z" fill="#F7C6D6" stroke="#B295A8" stroke-width="3" stroke-linejoin="round"></path><path d="M102.2,104C98.2,104 94.9,102.9 94.9,101.4C94.9,100 98.2,98.9 102.2,98.9C106.3,98.9 109.6,100 109.6,101.4C109.6,102.9 106.3,104 102.2,104Z" fill="#FFE6EE" opacity="0.9"></path><path d="M128,96C118.5,108.4 138.9,128.4 160.5,119.4C173,103.8 145.3,89.2 128,96Z" fill="#F7C6D6" stroke="#B295A8" stroke-width="3" stroke-linejoin="round"></path><path d="M154.1,103.4C157,105.5 158.2,108 156.8,109C155.4,110 151.9,109.2 149,107.1C146.2,105 145,102.5 146.4,101.5C147.8,100.5 151.2,101.4 154.1,103.4Z" fill="#FFE6EE" opacity="0.9"></path><path d="M128,96C110.7,89.2 83,103.8 95.5,119.4C117.1,128.4 137.5,108.4 128,96Z" fill="#F7C6D6" stroke="#B295A8" stroke-width="3" stroke-linejoin="round"></path><path d="M117.7,114.8C114.8,116.9 111.3,117.7 109.9,116.7C108.5,115.7 109.7,113.2 112.6,111.1C115.5,109.1 118.9,108.2 120.3,109.2C121.7,110.2 120.5,112.7 117.7,114.8Z" fill="#FFE6EE" opacity="0.9"></path><path d="M128,96C109.1,100 103.9,124.5 128,129.1C152.2,124.5 146.9,100 128,96Z" fill="#F7C6D6" stroke="#B295A8" stroke-width="3" stroke-linejoin="round"></path><path d="M139.1,114.5C139.1,117.5 137.5,119.8 135.6,119.8C133.6,119.8 132,117.5 132,114.5C132,111.6 133.6,109.2 135.6,109.2C137.5,109.2 139.1,111.6 139.1,114.5Z" fill="#FFE6EE" opacity="0.9"></path><path d="M128,96C144.5,97.7 157.8,82.6 140.4,74C119.4,71.5 114.5,89 128,96Z" fill="#2B3550" stroke="#2B3550" stroke-width="10" stroke-linejoin="round"></path><path d="M128,96C138.3,86.6 126.8,70.7 107.7,77.3C94.2,89.1 112.8,100.9 128,96Z" fill="#2B3550" stroke="#2B3550" stroke-width="10" stroke-linejoin="round"></path><path d="M128,96C134.2,107.2 159,107.9 160.7,92.7C153.2,78.4 129.7,84.1 128,96Z" fill="#2B3550" stroke="#2B3550" stroke-width="10" stroke-linejoin="round"></path><path d="M128,96C121.8,84.8 97,84.1 95.3,99.3C102.8,113.6 126.3,107.9 128,96Z" fill="#2B3550" stroke="#2B3550" stroke-width="10" stroke-linejoin="round"></path><path d="M128,96C117.7,105.4 129.2,121.3 148.3,114.7C161.8,102.9 143.2,91.1 128,96Z" fill="#2B3550" stroke="#2B3550" stroke-width="10" stroke-linejoin="round"></path><path d="M128,96C111.5,94.3 98.2,109.4 115.6,118C136.6,120.5 141.5,103 128,96Z" fill="#2B3550" stroke="#2B3550" stroke-width="10" stroke-linejoin="round"></path><path d="M128,96C144.5,97.7 157.8,82.6 140.4,74C119.4,71.5 114.5,89 128,96Z" fill="#F2ABC2" stroke="#AE839B" stroke-width="3" stroke-linejoin="round"></path><path d="M128,96C138.3,86.6 126.8,70.7 107.7,77.3C94.2,89.1 112.8,100.9 128,96Z" fill="#F2ABC2" stroke="#AE839B" stroke-width="3" stroke-linejoin="round"></path><path d="M128,96C134.2,107.2 159,107.9 160.7,92.7C153.2,78.4 129.7,84.1 128,96Z" fill="#F2ABC2" stroke="#AE839B" stroke-width="3" stroke-linejoin="round"></path><path d="M128,96C121.8,84.8 97,84.1 95.3,99.3C102.8,113.6 126.3,107.9 128,96Z" fill="#F2ABC2" stroke="#AE839B" stroke-width="3" stroke-linejoin="round"></path><path d="M128,96C117.7,105.4 129.2,121.3 148.3,114.7C161.8,102.9 143.2,91.1 128,96Z" fill="#F2ABC2" stroke="#AE839B" stroke-width="3" stroke-linejoin="round"></path><path d="M128,96C111.5,94.3 98.2,109.4 115.6,118C136.6,120.5 141.5,103 128,96Z" fill="#F2ABC2" stroke="#AE839B" stroke-width="3" stroke-linejoin="round"></path><path d="M128,96C139.9,95.8 145.7,85.7 131.5,81.8C116.3,81.9 116.9,92.8 128,96Z" fill="#2B3550" stroke="#2B3550" stroke-width="10" stroke-linejoin="round"></path><path d="M128,96C127.7,87.4 113.7,83.2 108.3,93.5C108.5,104.5 123.6,104 128,96Z" fill="#2B3550" stroke="#2B3550" stroke-width="10" stroke-linejoin="round"></path><path d="M128,96C128.3,104.6 142.3,108.8 147.7,98.5C147.5,87.5 132.4,88 128,96Z" fill="#2B3550" stroke="#2B3550" stroke-width="10" stroke-linejoin="round"></path><path d="M128,96C116.1,96.2 110.3,106.3 124.5,110.2C139.7,110.1 139.1,99.2 128,96Z" fill="#2B3550" stroke="#2B3550" stroke-width="10" stroke-linejoin="round"></path><path d="M128,96C139.9,95.8 145.7,85.7 131.5,81.8C116.3,81.9 116.9,92.8 128,96Z" fill="#E68DAA" stroke="#A66F8B" stroke-width="3" stroke-linejoin="round"></path><path d="M128,96C127.7,87.4 113.7,83.2 108.3,93.5C108.5,104.5 123.6,104 128,96Z" fill="#E68DAA" stroke="#A66F8B" stroke-width="3" stroke-linejoin="round"></path><path d="M128,96C128.3,104.6 142.3,108.8 147.7,98.5C147.5,87.5 132.4,88 128,96Z" fill="#E68DAA" stroke="#A66F8B" stroke-width="3" stroke-linejoin="round"></path><path d="M128,96C116.1,96.2 110.3,106.3 124.5,110.2C139.7,110.1 139.1,99.2 128,96Z" fill="#E68DAA" stroke="#A66F8B" stroke-width="3" stroke-linejoin="round"></path><path d="M118,96C118,92 122.5,88.8 128,88.8C133.5,88.8 138,92 138,96C138,100 133.5,103.2 128,103.2C122.5,103.2 118,100 118,96Z" fill="#2B3550" stroke="#2B3550" stroke-width="10" stroke-linejoin="round"></path><path d="M118,96C118,92 122.5,88.8 128,88.8C133.5,88.8 138,92 138,96C138,100 133.5,103.2 128,103.2C122.5,103.2 118,100 118,96Z" fill="#D9739A" stroke="#9E5E81" stroke-width="3" stroke-linejoin="round"></path><path d="M121.8,96Q126,89.9 133,94.2Q130.5,99.6 126.5,96.7" fill="none" stroke="#A84A72" stroke-width="2.4" stroke-linecap="round" stroke-linejoin="round"></path></svg>