<svg xmlns="http://www.w3.org/2000/svg" width="128" height="128" viewBox="0 0 256 256"><path d="M128,244 C125,222 131,196 128,170" fill="none" stroke="#4C6A49" stroke-width="18" stroke-linecap="round" stroke-linejoin="round"/><path d="M0,0 C10.64,-19 27.36,-19 38,0 C27.36,19 10.64,19 0,0Z" fill="#60825B" stroke="#60825B" stroke-width="10" stroke-linejoin="round" transform="translate(128,208) rotate(-150) scale(1,-1)"/><path d="M0,0 C10.64,-19 27.36,-19 38,0 C27.36,19 10.64,19 0,0Z" fill="#60825B" stroke="#60825B" stroke-width="10" stroke-linejoin="round" transform="translate(128,208) rotate(-30)"/><path d="M128,244 C125,222 131,196 128,170" fill="none" stroke="#599E52" stroke-width="8" stroke-linecap="round" stroke-linejoin="round"/><path d="M0,0 C10.64,-19 27.36,-19 38,0 C27.36,19 10.64,19 0,0Z" fill="#7DC974" stroke="#679361" stroke-width="3" stroke-linejoin="round" transform="translate(128,208) rotate(-150) scale(1,-1)"/><path d="M0,0 C10.64,-19 27.36,-19 38,0 Q19,-1.9 0,0Z" fill="#A4D99E" transform="translate(128,208) rotate(-150) scale(1,-1)"/><path d="M3.8,-0.38 Q19,-1.9 31.92,-0.19" fill="none" stroke="#62875D" stroke-width="2.4" stroke-linecap="round" stroke-linejoin="round" opacity="0.8" transform="translate(128,208) rotate(-150) scale(1,-1)"/><path d="M0,0 C10.64,-19 27.36,-19 38,0 C27.36,19 10.64,19 0,0Z" fill="#7DC974" stroke="#679361" stroke-width="3" stroke-linejoin="round" transform="translate(128,208) rotate(-30)"/><path d="M0,0 C10.64,-19 27.36,-19 38,0 Q19,-1.9 0,0Z" fill="#A4D99E" transform="translate(128,208) rotate(-30)"/><path d="M3.8,-0.38 Q19,-1.9 31.92,-0.19" fill="none" stroke="#62875D" stroke-width="2.4" stroke-linecap="round" stroke-linejoin="round" opacity="0.8" transform="translate(128,208) rotate(-30)"/><path d="M0,0 C-23.1,0 -19.95,-40.56 0,-52 C19.95,-40.56 23.1,0 0,0Z" fill="#938F68" stroke="#938F68" stroke-width="10" stroke-linejoin="round" transform="translate(128,176)"/><path d="M0,0 C-23.1,0 -19.95,-40.56 0,-52 C19.95,-40.56 23.1,0 0,0Z" fill="#D9E08C" stroke="#A4A271" stroke-width="3" stroke-linejoin="round" transform="translate(128,176)"/><path d="M0,-29 C-15,-31.37 -11.4,-47.96 0,-52.7 C11.4,-47.96 15,-31.37 0,-29Z" fill="#FAFAF5" transform="translate(128,176)"/></svg>